M48
;DRILL file {KiCad 5.0.0} date Wed Oct 17 16:46:32 2018
;FORMAT={-:-/ absolute / metric / decimal}
FMAT,2
METRIC,TZ
T1C0.750
T2C0.800
T3C0.900
T4C1.000
%
G90
G05
M71
T1
X22.225Y9.525
X22.225Y8.255
X22.225Y6.985
X11.43Y23.876
X12.7Y23.876
X13.97Y23.876
X19.05Y3.175
X20.32Y3.175
X21.59Y3.175
X17.78Y9.525
X17.78Y8.255
X17.78Y6.985
T2
X33.02Y9.525
X33.02Y1.905
X6.985Y5.715
X14.605Y5.715
X6.985Y2.54
X14.605Y2.54
X6.985Y19.685
X6.985Y12.065
X9.525Y19.685
X9.525Y12.065
X12.065Y19.685
X12.065Y12.065
X14.605Y19.685
X14.605Y12.065
X17.145Y19.685
X17.145Y12.065
X19.685Y19.685
X19.685Y12.065
X22.225Y19.685
X22.225Y12.065
X24.765Y19.685
X24.765Y12.065
X27.305Y19.685
X27.305Y12.065
X29.845Y19.685
X29.845Y12.065
X16.55Y24.765
X19.05Y24.765
X22.86Y22.225
X30.48Y22.225
X29.845Y9.525
X29.845Y1.905
X5.755Y23.495
X8.255Y23.495
X26.67Y9.525
X26.67Y1.905
X6.985Y8.89
X14.605Y8.89
T3
X3.175Y7.62
X3.175Y6.35
X3.175Y5.08
X3.175Y3.81
T4
X3.175Y14.605
X3.175Y12.065
X3.175Y22.225
X3.175Y19.685
X33.655Y22.225
X33.655Y19.685
X17.145Y22.225
X19.685Y22.225
X33.655Y14.605
X33.655Y12.065
T0
M30
