G04 #@! TF.GenerationSoftware,KiCad,Pcbnew,5.0.0*
G04 #@! TF.CreationDate,2018-10-17T16:46:10-04:00*
G04 #@! TF.ProjectId,led-board,6C65642D626F6172642E6B696361645F,rev?*
G04 #@! TF.SameCoordinates,PX7c25018PY6350ce0*
G04 #@! TF.FileFunction,Copper,L1,Top,Signal*
G04 #@! TF.FilePolarity,Positive*
%FSLAX46Y46*%
G04 Gerber Fmt 4.6, Leading zero omitted, Abs format (unit mm)*
G04 Created by KiCad (PCBNEW 5.0.0) date Wed Oct 17 16:46:10 2018*
%MOMM*%
%LPD*%
G01*
G04 APERTURE LIST*
G04 #@! TA.AperFunction,NonConductor*
%ADD10C,0.150000*%
G04 #@! TD*
G04 #@! TA.AperFunction,ComponentPad*
%ADD11O,1.050000X1.500000*%
G04 #@! TD*
G04 #@! TA.AperFunction,ComponentPad*
%ADD12R,1.050000X1.500000*%
G04 #@! TD*
G04 #@! TA.AperFunction,ComponentPad*
%ADD13R,1.600000X1.600000*%
G04 #@! TD*
G04 #@! TA.AperFunction,ComponentPad*
%ADD14O,1.600000X1.600000*%
G04 #@! TD*
G04 #@! TA.AperFunction,ComponentPad*
%ADD15R,1.700000X1.700000*%
G04 #@! TD*
G04 #@! TA.AperFunction,ComponentPad*
%ADD16O,1.700000X1.700000*%
G04 #@! TD*
G04 #@! TA.AperFunction,ComponentPad*
%ADD17C,1.600000*%
G04 #@! TD*
G04 #@! TA.AperFunction,ComponentPad*
%ADD18C,1.700000*%
G04 #@! TD*
G04 #@! TA.AperFunction,ComponentPad*
%ADD19R,1.800000X1.070000*%
G04 #@! TD*
G04 #@! TA.AperFunction,ComponentPad*
%ADD20O,1.800000X1.070000*%
G04 #@! TD*
G04 #@! TA.AperFunction,ComponentPad*
%ADD21R,1.500000X1.050000*%
G04 #@! TD*
G04 #@! TA.AperFunction,ComponentPad*
%ADD22O,1.500000X1.050000*%
G04 #@! TD*
G04 APERTURE END LIST*
D10*
X34290000Y26670000D02*
G75*
G02X36830000Y24130000I0J-2540000D01*
G01*
X0Y24130000D02*
G75*
G02X2540000Y26670000I2540000J0D01*
G01*
X2540000Y0D02*
G75*
G02X0Y2540000I0J2540000D01*
G01*
X36830000Y2540000D02*
G75*
G02X34290000Y0I-2540000J0D01*
G01*
X0Y2540000D02*
X0Y24130000D01*
X34290000Y0D02*
X2540000Y0D01*
X36830000Y24130000D02*
X36830000Y2540000D01*
X2540000Y26670000D02*
X34290000Y26670000D01*
D11*
G04 #@! TO.P,Q2,2*
G04 #@! TO.N,/GREEN*
X20320000Y3175000D03*
G04 #@! TO.P,Q2,3*
G04 #@! TO.N,Net-(Q2-Pad3)*
X19050000Y3175000D03*
D12*
G04 #@! TO.P,Q2,1*
G04 #@! TO.N,GND*
X21590000Y3175000D03*
G04 #@! TD*
D13*
G04 #@! TO.P,U2,1*
G04 #@! TO.N,+3V3*
X6985000Y12065000D03*
D14*
G04 #@! TO.P,U2,11*
G04 #@! TO.N,Net-(U2-Pad11)*
X29845000Y19685000D03*
G04 #@! TO.P,U2,2*
G04 #@! TO.N,Net-(U2-Pad2)*
X9525000Y12065000D03*
G04 #@! TO.P,U2,12*
G04 #@! TO.N,/GREEN*
X27305000Y19685000D03*
G04 #@! TO.P,U2,3*
G04 #@! TO.N,/RX*
X12065000Y12065000D03*
G04 #@! TO.P,U2,13*
G04 #@! TO.N,Net-(U2-Pad13)*
X24765000Y19685000D03*
G04 #@! TO.P,U2,4*
G04 #@! TO.N,/TX*
X14605000Y12065000D03*
G04 #@! TO.P,U2,14*
G04 #@! TO.N,/BLUE*
X22225000Y19685000D03*
G04 #@! TO.P,U2,5*
G04 #@! TO.N,Net-(U2-Pad5)*
X17145000Y12065000D03*
G04 #@! TO.P,U2,15*
G04 #@! TO.N,Net-(U2-Pad15)*
X19685000Y19685000D03*
G04 #@! TO.P,U2,6*
G04 #@! TO.N,Net-(U2-Pad6)*
X19685000Y12065000D03*
G04 #@! TO.P,U2,16*
G04 #@! TO.N,/RESET*
X17145000Y19685000D03*
G04 #@! TO.P,U2,7*
G04 #@! TO.N,Net-(U2-Pad7)*
X22225000Y12065000D03*
G04 #@! TO.P,U2,17*
G04 #@! TO.N,/TEST*
X14605000Y19685000D03*
G04 #@! TO.P,U2,8*
G04 #@! TO.N,Net-(U2-Pad8)*
X24765000Y12065000D03*
G04 #@! TO.P,U2,18*
G04 #@! TO.N,Net-(U2-Pad18)*
X12065000Y19685000D03*
G04 #@! TO.P,U2,9*
G04 #@! TO.N,/RED*
X27305000Y12065000D03*
G04 #@! TO.P,U2,19*
G04 #@! TO.N,Net-(U2-Pad19)*
X9525000Y19685000D03*
G04 #@! TO.P,U2,10*
G04 #@! TO.N,Net-(U2-Pad10)*
X29845000Y12065000D03*
G04 #@! TO.P,U2,20*
G04 #@! TO.N,GND*
X6985000Y19685000D03*
G04 #@! TD*
D15*
G04 #@! TO.P,J5,1*
G04 #@! TO.N,/TEST*
X17145000Y22225000D03*
D16*
G04 #@! TO.P,J5,2*
G04 #@! TO.N,/RESET*
X19685000Y22225000D03*
G04 #@! TD*
G04 #@! TO.P,J3,2*
G04 #@! TO.N,GND*
X33655000Y22225000D03*
D15*
G04 #@! TO.P,J3,1*
G04 #@! TO.N,+5V*
X33655000Y19685000D03*
G04 #@! TD*
D14*
G04 #@! TO.P,R4,2*
G04 #@! TO.N,GND*
X33020000Y1905000D03*
D17*
G04 #@! TO.P,R4,1*
G04 #@! TO.N,/GREEN*
X33020000Y9525000D03*
G04 #@! TD*
D13*
G04 #@! TO.P,C1,1*
G04 #@! TO.N,+5V*
X5755000Y23495000D03*
D17*
G04 #@! TO.P,C1,2*
G04 #@! TO.N,GND*
X8255000Y23495000D03*
G04 #@! TD*
G04 #@! TO.P,C2,1*
G04 #@! TO.N,+3V3*
X19050000Y24765000D03*
G04 #@! TO.P,C2,2*
G04 #@! TO.N,GND*
X16550000Y24765000D03*
G04 #@! TD*
D18*
G04 #@! TO.P,J1,1*
G04 #@! TO.N,/RX*
X3175000Y12065000D03*
D16*
G04 #@! TO.P,J1,2*
G04 #@! TO.N,Net-(J1-Pad2)*
X3175000Y14605000D03*
G04 #@! TD*
G04 #@! TO.P,J2,2*
G04 #@! TO.N,GND*
X3175000Y22225000D03*
D15*
G04 #@! TO.P,J2,1*
G04 #@! TO.N,+5V*
X3175000Y19685000D03*
G04 #@! TD*
D18*
G04 #@! TO.P,J4,1*
G04 #@! TO.N,/TX*
X33655000Y12065000D03*
D16*
G04 #@! TO.P,J4,2*
G04 #@! TO.N,Net-(J1-Pad2)*
X33655000Y14605000D03*
G04 #@! TD*
D19*
G04 #@! TO.P,D1,1*
G04 #@! TO.N,Net-(D1-Pad1)*
X3175000Y7620000D03*
D20*
G04 #@! TO.P,D1,2*
G04 #@! TO.N,+5V*
X3175000Y6350000D03*
G04 #@! TO.P,D1,3*
G04 #@! TO.N,Net-(D1-Pad3)*
X3175000Y5080000D03*
G04 #@! TO.P,D1,4*
G04 #@! TO.N,Net-(D1-Pad4)*
X3175000Y3810000D03*
G04 #@! TD*
D12*
G04 #@! TO.P,U1,1*
G04 #@! TO.N,+3V3*
X13970000Y23876000D03*
D11*
G04 #@! TO.P,U1,3*
G04 #@! TO.N,+5V*
X11430000Y23876000D03*
G04 #@! TO.P,U1,2*
G04 #@! TO.N,GND*
X12700000Y23876000D03*
G04 #@! TD*
D21*
G04 #@! TO.P,Q1,1*
G04 #@! TO.N,GND*
X17780000Y9525000D03*
D22*
G04 #@! TO.P,Q1,3*
G04 #@! TO.N,Net-(Q1-Pad3)*
X17780000Y6985000D03*
G04 #@! TO.P,Q1,2*
G04 #@! TO.N,/RED*
X17780000Y8255000D03*
G04 #@! TD*
G04 #@! TO.P,Q3,2*
G04 #@! TO.N,/BLUE*
X22225000Y8255000D03*
G04 #@! TO.P,Q3,3*
G04 #@! TO.N,Net-(Q3-Pad3)*
X22225000Y6985000D03*
D21*
G04 #@! TO.P,Q3,1*
G04 #@! TO.N,GND*
X22225000Y9525000D03*
G04 #@! TD*
D17*
G04 #@! TO.P,R7,1*
G04 #@! TO.N,Net-(D1-Pad4)*
X6985000Y5715000D03*
D14*
G04 #@! TO.P,R7,2*
G04 #@! TO.N,Net-(Q3-Pad3)*
X14605000Y5715000D03*
G04 #@! TD*
G04 #@! TO.P,R3,2*
G04 #@! TO.N,Net-(Q1-Pad3)*
X14605000Y8890000D03*
D17*
G04 #@! TO.P,R3,1*
G04 #@! TO.N,Net-(D1-Pad1)*
X6985000Y8890000D03*
G04 #@! TD*
G04 #@! TO.P,R2,1*
G04 #@! TO.N,/RED*
X26670000Y9525000D03*
D14*
G04 #@! TO.P,R2,2*
G04 #@! TO.N,GND*
X26670000Y1905000D03*
G04 #@! TD*
G04 #@! TO.P,R1,2*
G04 #@! TO.N,/RESET*
X22860000Y22225000D03*
D17*
G04 #@! TO.P,R1,1*
G04 #@! TO.N,+3V3*
X30480000Y22225000D03*
G04 #@! TD*
D14*
G04 #@! TO.P,R5,2*
G04 #@! TO.N,Net-(Q2-Pad3)*
X14605000Y2540000D03*
D17*
G04 #@! TO.P,R5,1*
G04 #@! TO.N,Net-(D1-Pad3)*
X6985000Y2540000D03*
G04 #@! TD*
G04 #@! TO.P,R6,1*
G04 #@! TO.N,/BLUE*
X29845000Y9525000D03*
D14*
G04 #@! TO.P,R6,2*
G04 #@! TO.N,GND*
X29845000Y1905000D03*
G04 #@! TD*
M02*
